<?xml version="1.0" encoding="UTF-8"?>
<svg width="256" height="256" version="1.1" xmlns="http://www.w3.org/2000/svg" viewBox="0 0 256 256">
    <style>
        svg {
            /* background-color: black; */
        }
        #back {
            /* fill: #bcf; */
            fill: none;
        }
        #drop, .drop {
            /* fill: #bcf; */
            /* fill: #6b8; */
            fill: #9b7a78;
        }
    </style>
    <defs>
        <path id="drop"
            d="
                M 0 -360
                C
                210 -360 360 -210 360 0
                360 210 210 360 0 360
                -100 360 -180 280 -180 180
                -180 80 -100 0 0 0
                80 0 180 -80 180 -180
                180 -280 90 -360 0 -360
            "
        />
    </defs>
    <g transform="translate(360 360)" style="display:none">
        <ellipse id="back" rx="360" ry="360" />
        <!-- <use href="#drop" transform="scale(0.9 1) skewX(5) translate(38 0)" /> -->
        <path id="drop"
            d="
                M 0 -360
                C
                210 -360 360 -210 360 0
                360 210 270 300 60 300
                -70 300 -150 280 -150 180
                -150 80 -100 0 0 0
                80 0 180 -80 180 -180
                180 -280 90 -360 0 -360
            "
        />
        <use href="#drop" transform="rotate(180)" />
        <!-- <path fill="none" stroke="green" d="M 0 -360 Q 360 -360 360 0 360 360 0 360 -180 360 -180 180 -180 0 0 0 180 0 180 -180 180 -360 0 -360" /> -->
        <ellipse fill="none" stroke="black" rx="360" ry="360" />
        <!-- <ellipse fill="none" stroke="#486" stroke-width="20" rx="350" ry="350" /> -->
    </g>
    <path
        class="drop"
        d="M 131.98506,0 C 202.73957,0 256,65.176354 256,128 256,203.66795 183.70349,256 138.68241,256 120.07658,256 94.356727,244.86893 94.176438,201.69748 96.637733,165.77226 132.05359,153.10217 153.95642,134.89323 174.43214,117.42367 220.42408,62.328028 145.57641,5.5809509 138.86842,0.49517114 131.98506,0.12724061 131.98506,0 Z"
        id="path998" />
    <path
        class="drop"
        d="m 40.674328,219.27015 c 0,0 -40.674328,-27.74332 -40.674328,-91.98405 C 0,56.991976 57.112154,9.5989799 97.256927,3.7554023 126.63374,0 161.49462,28.877962 163.40851,59.502797 c 1.54282,24.687276 -8.76399,33.447987 -29.26647,48.966373 -22.19553,16.79987 -53.470258,22.84832 -72.50897,46.47919 -25.947178,32.20567 -20.958742,64.32179 -20.958742,64.32179 z"
        id="path8880" />
    <!-- <rect fill="none" stroke="red" width="256" height="256" /> -->
</svg>
