<?xml version="1.0" encoding="UTF-8"?>
<svg width="256" height="256" version="1.1" xmlns="http://www.w3.org/2000/svg" viewBox="0 0 256 256">
    <style>
        svg {
            /* background-color: black; */
        }
        .drop {
            /* fill: #bcf; */
            /* fill: #6b8; */
            fill: #809fa1;
        }
    </style>
    <path
        class="drop"
        d="M 130.18064,0 C 197.19596,0.1122784 255.40784,55.723812 256,128 c 0.39547,48.26888 -26.26153,101.36924 -75.14082,102.29537 -23.32701,0.32854 -50.89872,-26.32584 -51.23475,-48.65981 -0.7465,-49.61625 50.90975,-68.42434 50.69844,-113.648326 -0.57273,-21.341295 -9.96296,-43.576757 -48.48606,-66.9017037 z"
        id="path998" />
    <path
        class="drop"
        d="M 121.7694,256 C 54.875547,255.67856 0.68264863,193.96656 0,128 0.35829903,51.610211 69.97958,-1.8715023 109.9928,4.8137184 c 26.46991,4.4224689 47.71638,22.1742666 48.60466,55.7636316 1.34259,50.76894 -70.900303,70.67974 -79.446879,117.16283 -8.193697,44.56385 42.618819,77.9 42.618819,77.9 z"
        id="path8880" />
    <!-- <rect fill="none" stroke="red" width="256" height="256" /> -->
</svg>
